<?xml version="1.0" encoding="iso-8859-1"?>
<!-- Uploaded to: SVG Repo, www.svgrepo.com, Generator: SVG Repo Mixer Tools -->
<!DOCTYPE svg PUBLIC "-//W3C//DTD SVG 1.1//EN" "http://www.w3.org/Graphics/SVG/1.1/DTD/svg11.dtd">
<svg fill="#000000" version="1.1" id="Capa_1" xmlns="http://www.w3.org/2000/svg" xmlns:xlink="http://www.w3.org/1999/xlink" 
	 width="800px" height="800px" viewBox="0 0 53.24 53.24" xml:space="preserve"
	>
<g>
	<g>
		<path d="M39.631,13.739c-3.062-0.354-7.805-0.556-13.011-0.556s-9.949,0.202-13.01,0.556c-1.992,0.23-3.401,0.859-4.077,1.82
			c-0.688,0.978-0.452,2.028-0.441,2.072c0.017,0.075,0.029,0.162,0.029,0.239c0,4.632,0.4,8.021,0.75,10.104
			c2.924-2.541,9.869-3.854,16.75-3.854s13.826,1.314,16.75,3.854c0.352-2.083,0.75-5.473,0.75-10.104
			c0-0.084,0.012-0.168,0.032-0.249c0.008-0.034,0.243-1.085-0.444-2.063C43.032,14.598,41.622,13.969,39.631,13.739z"/>
		<path d="M26.62,0C11.918,0,0,11.918,0,26.62c0,14.702,11.918,26.62,26.62,26.62s26.62-11.918,26.62-26.62
			C53.24,11.918,41.322,0,26.62,0z M41.432,31.963c0,8.702-6.645,15.782-14.812,15.782s-14.813-7.08-14.813-15.782
			c0-0.039,0.018-0.072,0.022-0.109c-0.004-0.036-0.022-0.069-0.022-0.107c0-3.521,7.678-5.125,14.813-5.125
			s14.812,1.604,14.812,5.125c0,0.038-0.018,0.071-0.021,0.107C41.415,31.891,41.432,31.924,41.432,31.963z M46.12,17.971
			c-0.01,8.482-1.3,12.859-1.354,13.042c-0.129,0.428-0.522,0.711-0.957,0.711c-0.049,0-0.099-0.004-0.147-0.01
			c-0.491-0.072-0.854-0.494-0.854-0.99c0-1.922-6.158-4.604-16.188-4.604c-10.03,0-16.188,2.682-16.188,4.604
			c0,0.496-0.363,0.918-0.854,0.99c-0.488,0.064-0.96-0.227-1.104-0.701c-0.055-0.184-1.345-4.561-1.355-13.042
			c-0.089-0.482-0.268-2.044,0.748-3.521c1.021-1.485,2.876-2.394,5.513-2.697c3.135-0.362,7.96-0.569,13.24-0.569
			c5.279,0,10.105,0.207,13.24,0.569c2.637,0.304,4.49,1.212,5.513,2.697C46.389,15.927,46.209,17.489,46.12,17.971z"/>
		<path d="M26.62,28.62c-7.948,0-12.813,2.022-12.813,3.125c0,0.038-0.018,0.071-0.022,0.108c0.004,0.037,0.022,0.07,0.022,0.107
			c0,7.6,5.748,13.783,12.813,13.783c7.065,0,12.813-6.184,12.813-13.783c0-0.037,0.018-0.07,0.021-0.107
			c-0.004-0.037-0.021-0.07-0.021-0.108C39.432,30.645,34.568,28.62,26.62,28.62z M26.62,43.87c-2.964,0-5.375-2.411-5.375-5.375
			s2.411-5.375,5.375-5.375s5.375,2.411,5.375,5.375S29.584,43.87,26.62,43.87z"/>
		<path d="M26.62,35.12c-1.861,0-3.375,1.515-3.375,3.375s1.514,3.375,3.375,3.375c1.86,0,3.375-1.515,3.375-3.375
			S28.48,35.12,26.62,35.12z"/>
	</g>
</g>
</svg>